HIERARCHY
ROOT Hips
{
	OFFSET 0.000000 0.000000 0.000000
	CHANNELS 6 Xposition Yposition Zposition Zrotation Yrotation Xrotation 
	JOINT LeftUpLeg_virtual
	{
		OFFSET 0.000000 0.000000 0.000000
		CHANNELS 3 Zrotation Yrotation Xrotation
		JOINT LeftUpLeg
		{
			OFFSET 10.205400 -3.823500 0.155100
			CHANNELS 3 Zrotation Yrotation Xrotation
			JOINT LeftLeg
			{
				OFFSET 0.708757 -12.982077 0.567790
				CHANNELS 3 Zrotation Yrotation Xrotation
				JOINT LeftFoot
				{
					OFFSET -0.708756 -10.717838 -2.184338
					CHANNELS 3 Zrotation Yrotation Xrotation
					JOINT LeftToeBase
					{
						OFFSET 0.108149 -7.191104 7.560241
						CHANNELS 3 Zrotation Yrotation Xrotation
						End Site
						{
							OFFSET 0.000000 0.000000 0.000000
						}
					}
				}
			}
		}
	}
	JOINT RightUpLeg_virtual
	{
		OFFSET 0.000000 0.000000 0.000000
		CHANNELS 3 Zrotation Yrotation Xrotation
		JOINT RightUpLeg
		{
			OFFSET -10.205400 -3.823500 0.005500
			CHANNELS 3 Zrotation Yrotation Xrotation
			JOINT RightLeg
			{
				OFFSET -0.708756 -12.982134 0.610632
				CHANNELS 3 Zrotation Yrotation Xrotation
				JOINT RightFoot
				{
					OFFSET 0.708754 -10.717769 -1.945823
					CHANNELS 3 Zrotation Yrotation Xrotation
					JOINT RightToeBase
					{
						OFFSET -0.108140 -7.191069 7.372968
						CHANNELS 3 Zrotation Yrotation Xrotation
						End Site
						{
							OFFSET 0.000000 0.000000 0.000000
						}
					}
				}
			}
		}
	}
	JOINT Spine_virtual
	{
		OFFSET 0.000000 0.000000 0.000000
		CHANNELS 3 Zrotation Yrotation Xrotation
		JOINT Spine
		{
			OFFSET 0.000000 6.876099 0.125700
			CHANNELS 3 Zrotation Yrotation Xrotation
			JOINT Spine1
			{
				OFFSET 0.000000 8.022060 0.146608
				CHANNELS 3 Zrotation Yrotation Xrotation
				JOINT Spine2
				{
					OFFSET 0.000000 9.168068 0.167552
					CHANNELS 3 Zrotation Yrotation Xrotation
					JOINT Neck_virtual
					{
						OFFSET 0.000000 0.000000 0.000000
						CHANNELS 3 Zrotation Yrotation Xrotation
						JOINT Neck
						{
							OFFSET 0.000000 10.314075 0.188496
							CHANNELS 3 Zrotation Yrotation Xrotation
							JOINT Head
							{
								OFFSET 0.000000 7.643700 -2.377400
								CHANNELS 3 Zrotation Yrotation Xrotation
								End Site
								{
									OFFSET 0.000000 0.000000 0.000000
								}
							}
						}
					}
					JOINT LeftShoulder_virtual
					{
						OFFSET 0.000000 0.000000 0.000000
						CHANNELS 3 Zrotation Yrotation Xrotation
						JOINT LeftShoulder
						{
							OFFSET 4.392200 8.824978 0.174984
							CHANNELS 3 Zrotation Yrotation Xrotation
							JOINT LeftArm
							{
								OFFSET 8.771219 -2.981674 -0.026999
								CHANNELS 3 Zrotation Yrotation Xrotation
								JOINT LeftForeArm
								{
									OFFSET 8.512804 0.000000 -0.000000
									CHANNELS 3 Zrotation Yrotation Xrotation
									JOINT LeftHand
									{
										OFFSET 18.484802 0.000000 -0.000000
										CHANNELS 3 Zrotation Yrotation Xrotation
										End Site
										{
											OFFSET 0.000000 0.000000 0.000000
										}
									}
								}
							}
						}
					}
					JOINT RightShoulder_virtual
					{
						OFFSET 0.000000 0.000000 0.000000
						CHANNELS 3 Zrotation Yrotation Xrotation
						JOINT RightShoulder
						{
							OFFSET -4.392200 8.824993 0.141379
							CHANNELS 3 Zrotation Yrotation Xrotation
							JOINT RightArm
							{
								OFFSET -8.771282 -2.981682 -0.094208
								CHANNELS 3 Zrotation Yrotation Xrotation
								JOINT RightForeArm
								{
									OFFSET -8.494598 0.000000 0.000000
									CHANNELS 3 Zrotation Yrotation Xrotation
									JOINT RightHand
									{
										OFFSET -18.483803 0.000000 0.000001
										CHANNELS 3 Zrotation Yrotation Xrotation
										End Site
										{
											OFFSET 0.000000 0.000000 0.000000
										}
									}
								}
							}
						}
					}
				}
			}
		}
	}
}
MOTION
Frames: 12
Frame Time: 0.033333
-7.150416 33.351223 10.313755 -179.548311 23.903616 178.849063 3.737132 -1.282340 15.808119 -30.553034 5.373472 -25.076420 19.493462 10.294284 23.712487 1.218956 3.878849 -4.489635 0.000000 0.000000 0.000000 8.177947 -3.051278 18.583627 -4.957933 -29.853090 -46.725095 -7.606974 -9.621375 31.543408 -3.135772 9.104267 27.133691 0.000000 0.000000 0.000000 8.741139 0.042565 11.311202 17.077512 4.368727 -9.975925 -1.569687 -5.499815 14.669219 -0.013645 -0.317714 -0.155471 -1.697012 -3.685558 17.400641 -3.389022 1.105904 -6.229412 0.000000 0.000000 0.000000 0.146043 -2.881602 14.085571 -15.662233 -9.726267 8.070383 -46.534605 7.390169 16.153913 -5.121921 -40.473539 17.840821 0.000000 0.000000 0.000000 -4.510502 -1.404178 13.602518 26.906782 11.968584 4.420298 46.383586 -2.238397 -0.361411 -4.252266 29.466512 -8.520752 0.000000 0.000000 0.000000 
-7.167022 33.332508 10.252714 -179.648879 23.617117 178.741925 3.870830 -1.014359 15.941424 -30.635461 5.119030 -24.926733 19.215537 10.235963 23.758601 1.304144 3.656562 -4.494340 0.000000 0.000000 0.000000 8.324438 -3.434480 18.777956 -5.488880 -29.423403 -46.997254 -7.437972 -8.672856 31.843018 -2.975967 9.507580 27.116474 0.000000 0.000000 0.000000 8.982360 0.020331 11.619248 17.628643 4.337351 -10.321820 -1.432103 -5.549847 14.749445 -0.016929 -0.361386 -0.149363 -1.581770 -4.074688 17.513252 -3.429143 0.791816 -5.852889 0.000000 0.000000 0.000000 0.306789 -3.144029 14.148469 -15.734456 -9.759207 8.261177 -46.410534 7.328509 17.115351 -5.358365 -41.162565 18.210550 0.000000 0.000000 0.000000 -4.440365 -1.679448 13.621241 26.798850 11.789977 4.088116 46.783097 -2.638936 -0.717215 -4.195442 29.596661 -8.745533 0.000000 0.000000 0.000000 
-7.181235 33.317177 10.189733 -179.513409 23.659019 178.749875 4.135963 -0.706968 16.025787 -30.689068 4.938094 -24.722503 19.146864 10.199712 23.826101 1.163588 3.347093 -4.557670 0.000000 0.000000 0.000000 8.581608 -2.778547 19.670491 -5.567500 -29.920771 -47.303868 -7.094099 -8.522469 31.826240 -2.898776 9.839196 26.465064 0.000000 0.000000 0.000000 9.386319 -0.025952 11.980678 18.106405 4.268543 -10.641471 -1.390520 -5.604612 14.670025 0.036732 -0.275444 -0.039903 -1.526258 -3.988304 17.603798 -3.422331 0.645109 -5.621419 0.000000 0.000000 0.000000 0.321994 -3.230449 14.213719 -15.786048 -9.521958 8.396886 -46.034164 7.198724 18.117671 -5.677702 -41.643506 18.653513 0.000000 0.000000 0.000000 -4.385069 -1.604273 13.646994 26.644715 11.767572 4.076668 47.007845 -2.936671 -1.047720 -4.211779 29.874008 -9.021393 0.000000 0.000000 0.000000 
-7.203282 33.304554 10.111493 -179.561398 23.373848 178.690385 4.230286 -0.623653 16.046642 -30.720306 4.701422 -24.457287 18.956370 10.015960 23.900990 1.257883 3.413747 -4.596906 0.000000 0.000000 0.000000 8.736122 -2.772164 19.955993 -5.812129 -30.174820 -47.363148 -6.952113 -8.171812 31.996410 -3.047326 9.988674 26.120810 0.000000 0.000000 0.000000 9.749789 0.249402 11.902197 18.438685 4.192303 -10.988816 -1.332504 -5.809867 14.879910 0.007559 -0.406817 -0.111775 -1.351674 -4.368260 17.553615 -3.348947 0.593738 -5.043117 0.000000 0.000000 0.000000 0.549792 -3.421231 14.181934 -15.830937 -9.602973 8.515463 -45.650809 6.933792 19.150339 -5.806871 -41.737879 18.859556 0.000000 0.000000 0.000000 -4.258855 -1.726163 13.534966 26.432702 11.608882 3.816947 47.041193 -3.268278 -1.124897 -4.017612 29.897241 -9.111852 0.000000 0.000000 0.000000 
-7.242304 33.284733 10.030471 -179.589033 23.264324 178.657531 4.366434 -0.546288 16.031338 -30.845237 4.532337 -24.189576 18.963155 9.905859 23.978653 1.199119 3.399833 -4.668964 0.000000 0.000000 0.000000 8.897647 -2.841157 19.943201 -6.247398 -30.220763 -47.294009 -6.877887 -7.900385 32.256050 -3.160301 10.107904 25.992406 0.000000 0.000000 0.000000 9.933982 -0.112196 12.140420 18.900850 4.206463 -11.362206 -1.323380 -5.759683 14.738578 -0.027031 -0.283613 -0.040212 -1.410872 -4.199942 17.518689 -3.482962 0.282290 -4.729157 0.000000 0.000000 0.000000 0.518426 -3.376515 14.029746 -15.870462 -9.288042 8.644042 -45.278553 6.651082 19.850606 -5.885965 -41.770421 19.020960 0.000000 0.000000 0.000000 -4.288355 -1.811919 13.453570 26.222771 11.748806 3.819220 46.894102 -3.572382 -0.988317 -3.949497 29.963767 -9.286518 0.000000 0.000000 0.000000 
-7.277738 33.263691 9.955543 -179.605056 23.029238 178.629569 4.447669 -0.611979 15.979094 -31.039617 4.360061 -23.943706 19.030509 9.817575 24.082525 1.073720 3.384716 -4.755428 0.000000 0.000000 0.000000 9.012132 -3.149221 19.868064 -6.661781 -30.325879 -47.262368 -6.819073 -7.743649 32.555649 -3.223855 10.202713 25.830420 0.000000 0.000000 0.000000 10.188637 -0.243131 12.069987 19.289971 4.221661 -11.676451 -1.341248 -5.807839 14.775197 -0.046969 -0.356230 -0.053843 -1.393468 -4.362270 17.469158 -3.559545 0.462339 -4.230962 0.000000 0.000000 0.000000 0.543056 -3.409825 13.943304 -15.917633 -9.005729 8.704268 -44.937628 6.504485 20.355960 -5.989543 -41.734758 19.151651 0.000000 0.000000 0.000000 -4.355948 -1.799156 13.426052 26.027554 11.856381 3.925911 46.570504 -3.696966 -0.858680 -3.944509 29.755931 -9.464902 0.000000 0.000000 0.000000 
-7.303376 33.244484 9.896107 -179.572162 22.747802 178.605417 4.547724 -0.727089 15.944421 -31.226061 4.193801 -23.760241 19.150199 9.735909 24.208098 0.863366 3.327090 -4.862231 0.000000 0.000000 0.000000 9.161225 -3.372147 19.881731 -6.896410 -30.663233 -47.314653 -6.767491 -7.701252 32.863011 -3.297178 10.245752 25.617659 0.000000 0.000000 0.000000 10.575103 0.105065 11.671096 19.573625 4.344330 -11.845183 -1.425178 -6.260860 15.065505 0.019833 -0.497684 -0.206078 -1.406358 -4.789457 17.375120 -3.754850 0.408692 -3.793570 0.000000 0.000000 0.000000 0.546063 -3.527371 13.812174 -15.933827 -8.892525 8.545058 -44.584313 6.556351 20.757792 -6.394926 -41.589585 19.573777 0.000000 0.000000 0.000000 -4.364264 -2.007931 13.108532 25.869283 11.809908 3.899516 46.276512 -3.860667 -1.114713 -3.691731 29.445943 -9.437044 0.000000 0.000000 0.000000 
-7.306311 33.231140 9.864485 -179.577435 22.682447 178.589120 4.605599 -0.686368 15.924207 -31.317650 4.087246 -23.623574 19.253709 9.677538 24.311874 0.638446 3.281710 -5.002143 0.000000 0.000000 0.000000 9.289183 -3.449164 19.904215 -7.275053 -30.584378 -47.384533 -6.744492 -7.621415 33.205252 -3.352665 10.280116 25.507061 0.000000 0.000000 0.000000 10.747581 0.120523 11.604701 19.901397 4.213095 -12.078394 -1.412478 -6.092121 15.080791 -0.014335 -0.524143 -0.248299 -1.420391 -4.754237 17.340778 -3.923507 0.507079 -3.494430 0.000000 0.000000 0.000000 0.471988 -3.618192 13.792605 -15.983413 -8.573352 8.697248 -44.323894 6.690210 21.282895 -6.141881 -41.683780 19.291728 0.000000 0.000000 0.000000 -4.399569 -2.046562 13.009745 25.877080 11.716770 3.968963 46.060228 -3.973751 -1.118760 -3.713146 29.359213 -9.608870 0.000000 0.000000 0.000000 
-7.286585 33.221725 9.849684 -179.547478 22.577177 178.551718 4.720268 -0.719479 15.886031 -31.369997 4.001359 -23.463730 19.392405 9.600989 24.410020 0.361215 3.195283 -5.127019 0.000000 0.000000 0.000000 9.410635 -3.504095 19.974040 -7.525332 -30.558137 -47.426545 -6.704929 -7.644047 33.502952 -3.456448 10.268783 25.371754 0.000000 0.000000 0.000000 10.877255 0.069555 11.587694 20.183870 4.154045 -12.254469 -1.525678 -6.109299 15.095695 0.016672 -0.541396 -0.234864 -1.534814 -4.846158 17.359720 -4.103400 0.677361 -3.179341 0.000000 0.000000 0.000000 0.415881 -3.613860 13.730022 -15.981656 -8.314169 8.764442 -44.084121 6.960531 21.548031 -6.202964 -41.642676 19.298804 0.000000 0.000000 0.000000 -4.458552 -2.138971 12.984792 25.957536 11.935423 4.081003 46.016781 -3.980091 -1.471599 -3.666521 29.195323 -9.680886 0.000000 0.000000 0.000000 
-7.251616 33.224514 9.848343 -179.515922 22.666425 178.558220 4.795453 -0.701521 15.809195 -31.335972 3.970581 -23.299568 19.506399 9.524193 24.457010 0.144877 3.183272 -5.223686 0.000000 0.000000 0.000000 9.536863 -3.402785 20.008896 -7.758353 -30.407333 -47.413759 -6.666451 -7.636824 33.698330 -3.556820 10.253081 25.298237 0.000000 0.000000 0.000000 10.851507 -0.503678 11.917818 20.369257 4.177185 -12.479947 -1.577138 -6.013552 14.792800 -0.027127 -0.244724 -0.109858 -1.619861 -4.469431 17.544382 -4.236382 0.901196 -3.077432 0.000000 0.000000 0.000000 0.292395 -3.620020 13.962608 -15.914276 -7.774372 8.798362 -43.801084 7.253164 21.703080 -6.239513 -41.855922 19.318126 0.000000 0.000000 0.000000 -4.612024 -2.006035 13.253813 26.130745 12.016365 4.057513 46.124244 -3.898530 -1.742132 -3.616464 29.335147 -9.640468 0.000000 0.000000 0.000000 
-7.209620 33.238724 9.853532 -179.495855 22.534006 178.519917 4.798287 -0.801973 15.685914 -31.232795 3.971165 -23.124208 19.667970 9.446106 24.500244 -0.076286 3.153131 -5.250309 0.000000 0.000000 0.000000 9.624948 -3.511713 20.056666 -7.824133 -30.388294 -47.369780 -6.606704 -7.645965 33.742938 -3.645441 10.234400 25.184750 0.000000 0.000000 0.000000 10.960545 0.061346 11.404189 20.464102 4.252986 -12.406518 -1.674354 -6.401597 15.205955 0.021704 -0.797427 -0.186771 -1.660691 -4.845364 17.344126 -4.498923 0.909683 -2.829979 0.000000 0.000000 0.000000 0.289518 -3.712312 13.536585 -15.882422 -7.682691 8.826689 -43.602206 7.452732 22.033396 -6.388785 -41.764254 19.391901 0.000000 0.000000 0.000000 -4.625808 -2.004818 13.027614 26.345756 12.079861 4.061944 46.339528 -3.872624 -1.910212 -3.651627 29.203741 -9.818483 0.000000 0.000000 0.000000 
-7.166948 33.252926 9.868631 -179.496975 22.649102 178.515750 4.790652 -0.748221 15.589707 -31.137241 3.987971 -22.992336 19.806609 9.380531 24.530421 -0.273474 3.110053 -5.292770 0.000000 0.000000 0.000000 9.675254 -3.269288 20.198848 -7.885424 -30.184512 -47.337593 -6.582396 -7.594384 33.733263 -3.800888 10.158731 25.127776 0.000000 0.000000 0.000000 10.902636 -0.095344 11.626955 20.564475 4.224756 -12.473552 -1.724297 -6.302449 15.049852 -0.020639 -0.430233 -0.110524 -1.694277 -4.739122 17.360114 -4.579702 1.117379 -2.769071 0.000000 0.000000 0.000000 0.269023 -3.686477 13.691008 -15.767109 -7.738925 8.840809 -43.487415 7.557511 22.023569 -6.262653 -41.868363 19.154190 0.000000 0.000000 0.000000 -4.648433 -2.106628 13.088189 26.455303 11.978437 4.215099 46.599611 -3.834823 -2.133056 -3.579799 29.415466 -9.744379 0.000000 0.000000 0.000000 
